Dream.House.2011.By.AltriX

_______________________________________________
 
http://www.imdb.com/title/tt1462041/
_______________________________________________

Dream.House.2011.720p.Bluray.x264.AltriX

Format                           : MPEG-4
Format profile                   : Base Media
Codec ID                         : isom
File size                        : 700 MiB
Duration                         : 1h 30mn
Overall bit rate mode            : Variable
Overall bit rate                 : 1 077 Kbps


Video
ID                               : 1
Format                           : AVC
Format/Info                      : Advanced Video Codec
Format profile                   : High@L4.1
Format settings, CABAC           : Yes
Format settings, ReFrames        : 4 frames
Codec ID                         : avc1
Codec ID/Info                    : Advanced Video Coding
Duration                         : 1h 30mn
Bit rate                         : 1 004 Kbps
Maximum bit rate                 : 5 853 Kbps
Width                            : 1 280 pixels
Height                           : 544 pixels
Display aspect ratio             : 2.35:1
Original display aspect ratio    : 2.35:1
Frame rate mode                  : Constant
Frame rate                       : 23.976 fps
Color space                      : YUV
Chroma subsampling               : 4:2:0
Bit depth                        : 8 bits
Scan type                        : Progressive
Bits/(Pixel*Frame)               : 0.060
Stream size                      : 652 MiB (93%)
Writing library                  : x264 core 120 r2120 0c7dab9


Audio
ID                               : 2
Format                           : AAC
Format/Info                      : Advanced Audio Codec
Format profile                   : LC
Codec ID                         : 40
Duration                         : 1h 30mn
Bit rate mode                    : Variable
Bit rate                         : 70.5 Kbps
Maximum bit rate                 : 95.3 Kbps
Channel(s)                       : 2 channels
Channel positions                : Front: L R
Sampling rate                    : 48.0 KHz
Compression mode                 : Lossy
Stream size                      : 45.8 MiB (7%)
Language                         : English

                              SUB:
Dream.House.2011.720p.Bluray.x264.AltriX

